<?xml version="1.0" encoding="UTF-8"?>
<svg xmlns="http://www.w3.org/2000/svg" width="1400" height="1630" viewBox="0 0 1400 1630">
<style>
.title { font: 700 22px sans-serif; fill: #111827; }
.axis { font: 12px sans-serif; fill: #374151; }
.label { font: 12px sans-serif; fill: #111827; }
.value { font: 11px sans-serif; fill: #111827; }
.grid { stroke: #e5e7eb; stroke-width: 1; }
</style>
<text class="title" x="24" y="36">Repository Popularity by Stars (Top 50)</text>
<line class="grid" x1="480.00" y1="70" x2="480.00" y2="1570" />
<text class="axis" x="480.00" y="1588" text-anchor="middle">0</text>
<line class="grid" x1="626.67" y1="70" x2="626.67" y2="1570" />
<text class="axis" x="626.67" y="1588" text-anchor="middle">0</text>
<line class="grid" x1="773.33" y1="70" x2="773.33" y2="1570" />
<text class="axis" x="773.33" y="1588" text-anchor="middle">0</text>
<line class="grid" x1="920.00" y1="70" x2="920.00" y2="1570" />
<text class="axis" x="920.00" y="1588" text-anchor="middle">0</text>
<line class="grid" x1="1066.67" y1="70" x2="1066.67" y2="1570" />
<text class="axis" x="1066.67" y="1588" text-anchor="middle">1</text>
<line class="grid" x1="1213.33" y1="70" x2="1213.33" y2="1570" />
<text class="axis" x="1213.33" y="1588" text-anchor="middle">1</text>
<line class="grid" x1="1360.00" y1="70" x2="1360.00" y2="1570" />
<text class="axis" x="1360.00" y="1588" text-anchor="middle">1</text>
<text class="axis" x="920.00" y="1612" text-anchor="middle">GitHub stars</text>
<text class="label" x="468" y="85.84" text-anchor="end">prometheus-community/helm-charts</text>
<rect x="480" y="70" width="0.00" height="22" rx="2" ry="2" fill="#2563eb" />
<text class="value" x="486.00" y="85.84">0</text>
<text class="label" x="468" y="115.84" text-anchor="end">cert-manager/cert-manager</text>
<rect x="480" y="100" width="0.00" height="22" rx="2" ry="2" fill="#2563eb" />
<text class="value" x="486.00" y="115.84">0</text>
<text class="label" x="468" y="145.84" text-anchor="end">kubernetes/ingress-nginx</text>
<rect x="480" y="130" width="0.00" height="22" rx="2" ry="2" fill="#2563eb" />
<text class="value" x="486.00" y="145.84">0</text>
<text class="label" x="468" y="175.84" text-anchor="end">argoproj/argo-helm</text>
<rect x="480" y="160" width="0.00" height="22" rx="2" ry="2" fill="#2563eb" />
<text class="value" x="486.00" y="175.84">0</text>
<text class="label" x="468" y="205.84" text-anchor="end">bitnami/containers</text>
<rect x="480" y="190" width="0.00" height="22" rx="2" ry="2" fill="#2563eb" />
<text class="value" x="486.00" y="205.84">0</text>
<text class="label" x="468" y="235.84" text-anchor="end">bitnami/charts</text>
<rect x="480" y="220" width="0.00" height="22" rx="2" ry="2" fill="#2563eb" />
<text class="value" x="486.00" y="235.84">0</text>
<text class="label" x="468" y="265.84" text-anchor="end">traefik/traefik-helm-chart</text>
<rect x="480" y="250" width="0.00" height="22" rx="2" ry="2" fill="#2563eb" />
<text class="value" x="486.00" y="265.84">0</text>
<text class="label" x="468" y="295.84" text-anchor="end">kubernetes/dashboard</text>
<rect x="480" y="280" width="0.00" height="22" rx="2" ry="2" fill="#2563eb" />
<text class="value" x="486.00" y="295.84">0</text>
<text class="label" x="468" y="325.84" text-anchor="end">grafana/helm-charts</text>
<rect x="480" y="310" width="0.00" height="22" rx="2" ry="2" fill="#2563eb" />
<text class="value" x="486.00" y="325.84">0</text>
<text class="label" x="468" y="355.84" text-anchor="end">kubernetes-sigs/metrics-server</text>
<rect x="480" y="340" width="0.00" height="22" rx="2" ry="2" fill="#2563eb" />
<text class="value" x="486.00" y="355.84">0</text>
<text class="label" x="468" y="385.84" text-anchor="end">hashicorp/vault</text>
<rect x="480" y="370" width="0.00" height="22" rx="2" ry="2" fill="#2563eb" />
<text class="value" x="486.00" y="385.84">0</text>
<text class="label" x="468" y="415.84" text-anchor="end">goharbor/harbor</text>
<rect x="480" y="400" width="0.00" height="22" rx="2" ry="2" fill="#2563eb" />
<text class="value" x="486.00" y="415.84">0</text>
<text class="label" x="468" y="445.84" text-anchor="end">jenkinsci/helm-charts</text>
<rect x="480" y="430" width="0.00" height="22" rx="2" ry="2" fill="#2563eb" />
<text class="value" x="486.00" y="445.84">0</text>
<text class="label" x="468" y="475.84" text-anchor="end">external-secrets/external-secrets</text>
<rect x="480" y="460" width="0.00" height="22" rx="2" ry="2" fill="#2563eb" />
<text class="value" x="486.00" y="475.84">0</text>
<text class="label" x="468" y="505.84" text-anchor="end">kubernetes-sigs/external-dns</text>
<rect x="480" y="490" width="0.00" height="22" rx="2" ry="2" fill="#2563eb" />
<text class="value" x="486.00" y="505.84">0</text>
<text class="label" x="468" y="535.84" text-anchor="end">longhorn/longhorn-engine</text>
<rect x="480" y="520" width="0.00" height="22" rx="2" ry="2" fill="#2563eb" />
<text class="value" x="486.00" y="535.84">0</text>
<text class="label" x="468" y="565.84" text-anchor="end">aws/eks-charts</text>
<rect x="480" y="550" width="0.00" height="22" rx="2" ry="2" fill="#2563eb" />
<text class="value" x="486.00" y="565.84">0</text>
<text class="label" x="468" y="595.84" text-anchor="end">kubernetes-incubator/external-dns</text>
<rect x="480" y="580" width="0.00" height="22" rx="2" ry="2" fill="#2563eb" />
<text class="value" x="486.00" y="595.84">0</text>
<text class="label" x="468" y="625.84" text-anchor="end">apache/airflow</text>
<rect x="480" y="610" width="0.00" height="22" rx="2" ry="2" fill="#2563eb" />
<text class="value" x="486.00" y="625.84">0</text>
<text class="label" x="468" y="655.84" text-anchor="end">elastic/helm-charts</text>
<rect x="480" y="640" width="0.00" height="22" rx="2" ry="2" fill="#2563eb" />
<text class="value" x="486.00" y="655.84">0</text>
<text class="label" x="468" y="685.84" text-anchor="end">nextcloud/helm</text>
<rect x="480" y="670" width="0.00" height="22" rx="2" ry="2" fill="#2563eb" />
<text class="value" x="486.00" y="685.84">0</text>
<text class="label" x="468" y="715.84" text-anchor="end">vmware-tanzu/velero</text>
<rect x="480" y="700" width="0.00" height="22" rx="2" ry="2" fill="#2563eb" />
<text class="value" x="486.00" y="715.84">0</text>
<text class="label" x="468" y="745.84" text-anchor="end">cilium/cilium</text>
<rect x="480" y="730" width="0.00" height="22" rx="2" ry="2" fill="#2563eb" />
<text class="value" x="486.00" y="745.84">0</text>
<text class="label" x="468" y="775.84" text-anchor="end">kubernetes/autoscaler</text>
<rect x="480" y="760" width="0.00" height="22" rx="2" ry="2" fill="#2563eb" />
<text class="value" x="486.00" y="775.84">0</text>
<text class="label" x="468" y="805.84" text-anchor="end">metallb/metallb</text>
<rect x="480" y="790" width="0.00" height="22" rx="2" ry="2" fill="#2563eb" />
<text class="value" x="486.00" y="805.84">0</text>
<text class="label" x="468" y="835.84" text-anchor="end">istio/istio</text>
<rect x="480" y="820" width="0.00" height="22" rx="2" ry="2" fill="#2563eb" />
<text class="value" x="486.00" y="835.84">0</text>
<text class="label" x="468" y="865.84" text-anchor="end">argoproj/argo-workflows</text>
<rect x="480" y="850" width="0.00" height="22" rx="2" ry="2" fill="#2563eb" />
<text class="value" x="486.00" y="865.84">0</text>
<text class="label" x="468" y="895.84" text-anchor="end">rancher/ui</text>
<rect x="480" y="880" width="0.00" height="22" rx="2" ry="2" fill="#2563eb" />
<text class="value" x="486.00" y="895.84">0</text>
<text class="label" x="468" y="925.84" text-anchor="end">SonarSource/helm-chart-sonarqube</text>
<rect x="480" y="910" width="0.00" height="22" rx="2" ry="2" fill="#2563eb" />
<text class="value" x="486.00" y="925.84">0</text>
<text class="label" x="468" y="955.84" text-anchor="end">go-gitea/gitea</text>
<rect x="480" y="940" width="0.00" height="22" rx="2" ry="2" fill="#2563eb" />
<text class="value" x="486.00" y="955.84">0</text>
<text class="label" x="468" y="985.84" text-anchor="end">kyverno/kyverno</text>
<rect x="480" y="970" width="0.00" height="22" rx="2" ry="2" fill="#2563eb" />
<text class="value" x="486.00" y="985.84">0</text>
<text class="label" x="468" y="1015.84" text-anchor="end">fluent/fluent-bit</text>
<rect x="480" y="1000" width="0.00" height="22" rx="2" ry="2" fill="#2563eb" />
<text class="value" x="486.00" y="1015.84">0</text>
<text class="label" x="468" y="1045.84" text-anchor="end">cloudnative-pg/charts</text>
<rect x="480" y="1030" width="0.00" height="22" rx="2" ry="2" fill="#2563eb" />
<text class="value" x="486.00" y="1045.84">0</text>
<text class="label" x="468" y="1075.84" text-anchor="end">DataDog/helm-charts</text>
<rect x="480" y="1060" width="0.00" height="22" rx="2" ry="2" fill="#2563eb" />
<text class="value" x="486.00" y="1075.84">0</text>
<text class="label" x="468" y="1105.84" text-anchor="end">rowanruseler/helm-charts</text>
<rect x="480" y="1090" width="0.00" height="22" rx="2" ry="2" fill="#2563eb" />
<text class="value" x="486.00" y="1105.84">0</text>
<text class="label" x="468" y="1135.84" text-anchor="end">oauth2-proxy/manifests</text>
<rect x="480" y="1120" width="0.00" height="22" rx="2" ry="2" fill="#2563eb" />
<text class="value" x="486.00" y="1135.84">0</text>
<text class="label" x="468" y="1165.84" text-anchor="end">goauthentik/authentik</text>
<rect x="480" y="1150" width="0.00" height="22" rx="2" ry="2" fill="#2563eb" />
<text class="value" x="486.00" y="1165.84">0</text>
<text class="label" x="468" y="1195.84" text-anchor="end">bitnami-labs/sealed-secrets</text>
<rect x="480" y="1180" width="0.00" height="22" rx="2" ry="2" fill="#2563eb" />
<text class="value" x="486.00" y="1195.84">0</text>
<text class="label" x="468" y="1225.84" text-anchor="end">kubernetes-sigs/nfs-subdir-external-provisioner</text>
<rect x="480" y="1210" width="0.00" height="22" rx="2" ry="2" fill="#2563eb" />
<text class="value" x="486.00" y="1225.84">0</text>
<text class="label" x="468" y="1255.84" text-anchor="end">nginx/kubernetes-ingress</text>
<rect x="480" y="1240" width="0.00" height="22" rx="2" ry="2" fill="#2563eb" />
<text class="value" x="486.00" y="1255.84">0</text>
<text class="label" x="468" y="1285.84" text-anchor="end">artifacthub/hub</text>
<rect x="480" y="1270" width="0.00" height="22" rx="2" ry="2" fill="#2563eb" />
<text class="value" x="486.00" y="1285.84">0</text>
<text class="label" x="468" y="1315.84" text-anchor="end">norwoodj/helm-docs</text>
<rect x="480" y="1300" width="0.00" height="22" rx="2" ry="2" fill="#2563eb" />
<text class="value" x="486.00" y="1315.84">0</text>
<text class="label" x="468" y="1345.84" text-anchor="end">MoJo2600/pihole-kubernetes</text>
<rect x="480" y="1330" width="0.00" height="22" rx="2" ry="2" fill="#2563eb" />
<text class="value" x="486.00" y="1345.84">0</text>
<text class="label" x="468" y="1375.84" text-anchor="end">hashicorp/consul-k8s</text>
<rect x="480" y="1360" width="0.00" height="22" rx="2" ry="2" fill="#2563eb" />
<text class="value" x="486.00" y="1375.84">0</text>
<text class="label" x="468" y="1405.84" text-anchor="end">elastic/cloud-on-k8s</text>
<rect x="480" y="1390" width="0.00" height="22" rx="2" ry="2" fill="#2563eb" />
<text class="value" x="486.00" y="1405.84">0</text>
<text class="label" x="468" y="1435.84" text-anchor="end">elastic/kibana</text>
<rect x="480" y="1420" width="0.00" height="22" rx="2" ry="2" fill="#2563eb" />
<text class="value" x="486.00" y="1435.84">0</text>
<text class="label" x="468" y="1465.84" text-anchor="end">community-charts/helm-charts</text>
<rect x="480" y="1450" width="0.00" height="22" rx="2" ry="2" fill="#2563eb" />
<text class="value" x="486.00" y="1465.84">0</text>
<text class="label" x="468" y="1495.84" text-anchor="end">kubernetes-sigs/descheduler</text>
<rect x="480" y="1480" width="0.00" height="22" rx="2" ry="2" fill="#2563eb" />
<text class="value" x="486.00" y="1495.84">0</text>
<text class="label" x="468" y="1525.84" text-anchor="end">argoproj/argo-rollouts</text>
<rect x="480" y="1510" width="0.00" height="22" rx="2" ry="2" fill="#2563eb" />
<text class="value" x="486.00" y="1525.84">0</text>
<text class="label" x="468" y="1555.84" text-anchor="end">jupyterhub/zero-to-jupyterhub-k8s</text>
<rect x="480" y="1540" width="0.00" height="22" rx="2" ry="2" fill="#2563eb" />
<text class="value" x="486.00" y="1555.84">0</text>
</svg>