<?xml version="1.0" encoding="UTF-8"?>
<svg xmlns="http://www.w3.org/2000/svg" width="1400" height="1330" viewBox="0 0 1400 1330">
<style>
.title { font: 700 22px sans-serif; fill: #111827; }
.axis { font: 12px sans-serif; fill: #374151; }
.label { font: 12px sans-serif; fill: #111827; }
.value { font: 11px sans-serif; fill: #111827; }
.grid { stroke: #e5e7eb; stroke-width: 1; }
</style>
<text class="title" x="24" y="36">Helm Template Problems per Project (Top 40)</text>
<line class="grid" x1="480.00" y1="70" x2="480.00" y2="1270" />
<text class="axis" x="480.00" y="1288" text-anchor="middle">0</text>
<line class="grid" x1="626.67" y1="70" x2="626.67" y2="1270" />
<text class="axis" x="626.67" y="1288" text-anchor="middle">30</text>
<line class="grid" x1="773.33" y1="70" x2="773.33" y2="1270" />
<text class="axis" x="773.33" y="1288" text-anchor="middle">59</text>
<line class="grid" x1="920.00" y1="70" x2="920.00" y2="1270" />
<text class="axis" x="920.00" y="1288" text-anchor="middle">88</text>
<line class="grid" x1="1066.67" y1="70" x2="1066.67" y2="1270" />
<text class="axis" x="1066.67" y="1288" text-anchor="middle">118</text>
<line class="grid" x1="1213.33" y1="70" x2="1213.33" y2="1270" />
<text class="axis" x="1213.33" y="1288" text-anchor="middle">148</text>
<line class="grid" x1="1360.00" y1="70" x2="1360.00" y2="1270" />
<text class="axis" x="1360.00" y="1288" text-anchor="middle">177</text>
<text class="axis" x="920.00" y="1312" text-anchor="middle">Problem count (total_failures + total_dep_failures)</text>
<text class="label" x="468" y="85.84" text-anchor="end">Above-Os/terminus-apps</text>
<rect x="480" y="70" width="880.00" height="22" rx="2" ry="2" fill="#dc2626" />
<text class="value" x="1366.00" y="85.84">177</text>
<text class="label" x="468" y="115.84" text-anchor="end">acuvity/mcp-servers-registry</text>
<rect x="480" y="100" width="606.55" height="22" rx="2" ry="2" fill="#dc2626" />
<text class="value" x="1092.55" y="115.84">122</text>
<text class="label" x="468" y="145.84" text-anchor="end">KommunikativCh/rancher-charts</text>
<rect x="480" y="130" width="556.84" height="22" rx="2" ry="2" fill="#dc2626" />
<text class="value" x="1042.84" y="145.84">112</text>
<text class="label" x="468" y="175.84" text-anchor="end">cap-js/cap-operator-plugin</text>
<rect x="480" y="160" width="502.15" height="22" rx="2" ry="2" fill="#dc2626" />
<text class="value" x="988.15" y="175.84">101</text>
<text class="label" x="468" y="205.84" text-anchor="end">oracle-cne/catalog</text>
<rect x="480" y="190" width="482.26" height="22" rx="2" ry="2" fill="#dc2626" />
<text class="value" x="968.26" y="205.84">97</text>
<text class="label" x="468" y="235.84" text-anchor="end">project-sunbird/sunbird-devops</text>
<rect x="480" y="220" width="382.82" height="22" rx="2" ry="2" fill="#dc2626" />
<text class="value" x="868.82" y="235.84">77</text>
<text class="label" x="468" y="265.84" text-anchor="end">UPHRH-platform/sb-devops</text>
<rect x="480" y="250" width="382.82" height="22" rx="2" ry="2" fill="#dc2626" />
<text class="value" x="868.82" y="265.84">77</text>
<text class="label" x="468" y="295.84" text-anchor="end">tkestack/charts</text>
<rect x="480" y="280" width="263.50" height="22" rx="2" ry="2" fill="#dc2626" />
<text class="value" x="749.50" y="295.84">53</text>
<text class="label" x="468" y="325.84" text-anchor="end">open-edge-platform/edge-ai-libraries</text>
<rect x="480" y="310" width="149.15" height="22" rx="2" ry="2" fill="#dc2626" />
<text class="value" x="635.15" y="325.84">30</text>
<text class="label" x="468" y="355.84" text-anchor="end">KHAEntertainment/rockchip-ai-stack</text>
<rect x="480" y="340" width="134.24" height="22" rx="2" ry="2" fill="#dc2626" />
<text class="value" x="620.24" y="355.84">27</text>
<text class="label" x="468" y="385.84" text-anchor="end">Clark1992/ECK1</text>
<rect x="480" y="370" width="114.35" height="22" rx="2" ry="2" fill="#dc2626" />
<text class="value" x="600.35" y="385.84">23</text>
<text class="label" x="468" y="415.84" text-anchor="end">JonasHess/homelab-iac</text>
<rect x="480" y="400" width="109.38" height="22" rx="2" ry="2" fill="#dc2626" />
<text class="value" x="595.38" y="415.84">22</text>
<text class="label" x="468" y="445.84" text-anchor="end">IndustryFusion/GitOpsRepo</text>
<rect x="480" y="430" width="89.49" height="22" rx="2" ry="2" fill="#dc2626" />
<text class="value" x="575.49" y="445.84">18</text>
<text class="label" x="468" y="475.84" text-anchor="end">IvkinNikita/DevopLibrary</text>
<rect x="480" y="460" width="74.58" height="22" rx="2" ry="2" fill="#dc2626" />
<text class="value" x="560.58" y="475.84">15</text>
<text class="label" x="468" y="505.84" text-anchor="end">tmforum-oda/oda-canvas</text>
<rect x="480" y="490" width="64.63" height="22" rx="2" ry="2" fill="#dc2626" />
<text class="value" x="550.63" y="505.84">13</text>
<text class="label" x="468" y="535.84" text-anchor="end">EugeneKallis/kubernetes-cluster</text>
<rect x="480" y="520" width="59.66" height="22" rx="2" ry="2" fill="#dc2626" />
<text class="value" x="545.66" y="535.84">12</text>
<text class="label" x="468" y="565.84" text-anchor="end">WeBankFinTech/Prophecis</text>
<rect x="480" y="550" width="49.72" height="22" rx="2" ry="2" fill="#dc2626" />
<text class="value" x="535.72" y="565.84">10</text>
<text class="label" x="468" y="595.84" text-anchor="end">CloudFitSoftware/PubSec-Info-Assistant</text>
<rect x="480" y="580" width="49.72" height="22" rx="2" ry="2" fill="#dc2626" />
<text class="value" x="535.72" y="595.84">10</text>
<text class="label" x="468" y="625.84" text-anchor="end">onasunnymorning/domain-os</text>
<rect x="480" y="610" width="44.75" height="22" rx="2" ry="2" fill="#dc2626" />
<text class="value" x="530.75" y="625.84">9</text>
<text class="label" x="468" y="655.84" text-anchor="end">trueforge-org/truecharts</text>
<rect x="480" y="640" width="39.77" height="22" rx="2" ry="2" fill="#dc2626" />
<text class="value" x="525.77" y="655.84">8</text>
<text class="label" x="468" y="685.84" text-anchor="end">abhitall/helm-enterprise-template</text>
<rect x="480" y="670" width="39.77" height="22" rx="2" ry="2" fill="#dc2626" />
<text class="value" x="525.77" y="685.84">8</text>
<text class="label" x="468" y="715.84" text-anchor="end">erost/vdz26-demo-fleet-commander</text>
<rect x="480" y="700" width="34.80" height="22" rx="2" ry="2" fill="#dc2626" />
<text class="value" x="520.80" y="715.84">7</text>
<text class="label" x="468" y="745.84" text-anchor="end">anvega/helm-charts</text>
<rect x="480" y="730" width="34.80" height="22" rx="2" ry="2" fill="#dc2626" />
<text class="value" x="520.80" y="745.84">7</text>
<text class="label" x="468" y="775.84" text-anchor="end">ayarinesrine/pfe-deployment</text>
<rect x="480" y="760" width="34.80" height="22" rx="2" ry="2" fill="#dc2626" />
<text class="value" x="520.80" y="775.84">7</text>
<text class="label" x="468" y="805.84" text-anchor="end">camptocamp/charts</text>
<rect x="480" y="790" width="29.83" height="22" rx="2" ry="2" fill="#dc2626" />
<text class="value" x="515.83" y="805.84">6</text>
<text class="label" x="468" y="835.84" text-anchor="end">oneconcern/datamon</text>
<rect x="480" y="820" width="29.83" height="22" rx="2" ry="2" fill="#dc2626" />
<text class="value" x="515.83" y="835.84">6</text>
<text class="label" x="468" y="865.84" text-anchor="end">kast-spells/kast-system</text>
<rect x="480" y="850" width="29.83" height="22" rx="2" ry="2" fill="#dc2626" />
<text class="value" x="515.83" y="865.84">6</text>
<text class="label" x="468" y="895.84" text-anchor="end">cisco-open/appdynamics-k8s-webhook-instrumentor</text>
<rect x="480" y="880" width="29.83" height="22" rx="2" ry="2" fill="#dc2626" />
<text class="value" x="515.83" y="895.84">6</text>
<text class="label" x="468" y="925.84" text-anchor="end">HomeScaleCloud/homescale-public</text>
<rect x="480" y="910" width="29.83" height="22" rx="2" ry="2" fill="#dc2626" />
<text class="value" x="515.83" y="925.84">6</text>
<text class="label" x="468" y="955.84" text-anchor="end">akraino-edge-stack/iec-xconnect</text>
<rect x="480" y="940" width="29.83" height="22" rx="2" ry="2" fill="#dc2626" />
<text class="value" x="515.83" y="955.84">6</text>
<text class="label" x="468" y="985.84" text-anchor="end">vmware/secrets-manager</text>
<rect x="480" y="970" width="24.86" height="22" rx="2" ry="2" fill="#dc2626" />
<text class="value" x="510.86" y="985.84">5</text>
<text class="label" x="468" y="1015.84" text-anchor="end">aws-samples/amazon-eks-machine-learning-with-terraform-and-kubeflow</text>
<rect x="480" y="1000" width="24.86" height="22" rx="2" ry="2" fill="#dc2626" />
<text class="value" x="510.86" y="1015.84">5</text>
<text class="label" x="468" y="1045.84" text-anchor="end">Loongson-Cloud-Community/dockerfiles</text>
<rect x="480" y="1030" width="24.86" height="22" rx="2" ry="2" fill="#dc2626" />
<text class="value" x="510.86" y="1045.84">5</text>
<text class="label" x="468" y="1075.84" text-anchor="end">cnrancher/pandaria-catalog</text>
<rect x="480" y="1060" width="24.86" height="22" rx="2" ry="2" fill="#dc2626" />
<text class="value" x="510.86" y="1075.84">5</text>
<text class="label" x="468" y="1105.84" text-anchor="end">DOME-Marketplace/dome-gitops</text>
<rect x="480" y="1090" width="24.86" height="22" rx="2" ry="2" fill="#dc2626" />
<text class="value" x="510.86" y="1105.84">5</text>
<text class="label" x="468" y="1135.84" text-anchor="end">SAP/component-operator-runtime</text>
<rect x="480" y="1120" width="24.86" height="22" rx="2" ry="2" fill="#dc2626" />
<text class="value" x="510.86" y="1135.84">5</text>
<text class="label" x="468" y="1165.84" text-anchor="end">MrE-Fog/ks-installer2</text>
<rect x="480" y="1150" width="24.86" height="22" rx="2" ry="2" fill="#dc2626" />
<text class="value" x="510.86" y="1165.84">5</text>
<text class="label" x="468" y="1195.84" text-anchor="end">MrE-Fog/ks-installerff</text>
<rect x="480" y="1180" width="24.86" height="22" rx="2" ry="2" fill="#dc2626" />
<text class="value" x="510.86" y="1195.84">5</text>
<text class="label" x="468" y="1225.84" text-anchor="end">open-edge-platform/geti</text>
<rect x="480" y="1210" width="19.89" height="22" rx="2" ry="2" fill="#dc2626" />
<text class="value" x="505.89" y="1225.84">4</text>
<text class="label" x="468" y="1255.84" text-anchor="end">IBM/charts</text>
<rect x="480" y="1240" width="19.89" height="22" rx="2" ry="2" fill="#dc2626" />
<text class="value" x="505.89" y="1255.84">4</text>
</svg>